<?xml version="1.0" encoding="UTF-8" standalone="no"?>
<!DOCTYPE svg PUBLIC "-//W3C//DTD SVG 1.1//EN"
 "http://www.w3.org/Graphics/SVG/1.1/DTD/svg11.dtd">
<!-- Generated by graphviz version 2.40.1 (20161225.0304)
 -->
<!-- Title: UmlClassDiagram Pages: 1 -->
<svg width="1082pt" height="329pt"
 viewBox="0.00 0.00 1081.74 329.20" xmlns="http://www.w3.org/2000/svg" xmlns:xlink="http://www.w3.org/1999/xlink">
<g id="graph0" class="graph" transform="scale(1 1) rotate(0) translate(4 325.2)">
<title>UmlClassDiagram</title>
<polygon fill="#ffffff" stroke="transparent" points="-4,4 -4,-325.2 1077.737,-325.2 1077.737,4 -4,4"/>
<!-- 0 -->
<g id="node1" class="node">
<title>0</title>
<polygon fill="#f2f2f2" stroke="#000000" points="0,-195.9 0,-320.7 255.2138,-320.7 255.2138,-195.9 0,-195.9"/>
<text text-anchor="middle" x="127.6069" y="-304.1" font-family="Times,serif" font-size="14.00" fill="#000000">VirtualA</text>
<polyline fill="none" stroke="#000000" points="0,-295.9 255.2138,-295.9 "/>
<text text-anchor="start" x="8" y="-279.3" font-family="Times,serif" font-size="14.00" fill="#000000">Public:</text>
<text text-anchor="start" x="8" y="-262.5" font-family="Times,serif" font-size="14.00" fill="#000000"> &#160;&#160;base: GlobalBaseStruct</text>
<polyline fill="none" stroke="#000000" points="0,-254.3 255.2138,-254.3 "/>
<text text-anchor="start" x="8" y="-237.7" font-family="Times,serif" font-size="14.00" fill="#000000">Public:</text>
<text text-anchor="start" x="8" y="-220.9" font-family="Times,serif" font-size="14.00" fill="#000000"> &#160;&#160;&#160;&lt;&lt;event&gt;&gt; MyEvent(_myString: string)</text>
<text text-anchor="start" x="8" y="-204.1" font-family="Times,serif" font-size="14.00" fill="#000000"> &#160;&#160;&#160;funA()</text>
</g>
<!-- 1 -->
<g id="node2" class="node">
<title>1</title>
<polygon fill="#f2f2f2" stroke="#000000" points="273.5627,-212.7 273.5627,-303.9 341.6511,-303.9 341.6511,-212.7 273.5627,-212.7"/>
<text text-anchor="middle" x="307.6069" y="-287.3" font-family="Times,serif" font-size="14.00" fill="#000000">VirtualB</text>
<polyline fill="none" stroke="#000000" points="273.5627,-279.1 341.6511,-279.1 "/>
<text text-anchor="middle" x="307.6069" y="-262.5" font-family="Times,serif" font-size="14.00" fill="#000000"> </text>
<polyline fill="none" stroke="#000000" points="273.5627,-254.3 341.6511,-254.3 "/>
<text text-anchor="start" x="281.5627" y="-237.7" font-family="Times,serif" font-size="14.00" fill="#000000">Public:</text>
<text text-anchor="start" x="281.5627" y="-220.9" font-family="Times,serif" font-size="14.00" fill="#000000"> &#160;&#160;&#160;funA()</text>
</g>
<!-- 2 -->
<g id="node3" class="node">
<title>2</title>
<polygon fill="#f2f2f2" stroke="#000000" points="163.7366,-34.1 163.7366,-125.3 271.4772,-125.3 271.4772,-34.1 163.7366,-34.1"/>
<text text-anchor="middle" x="217.6069" y="-108.7" font-family="Times,serif" font-size="14.00" fill="#000000">VirtualOverdide</text>
<polyline fill="none" stroke="#000000" points="163.7366,-100.5 271.4772,-100.5 "/>
<text text-anchor="middle" x="217.6069" y="-83.9" font-family="Times,serif" font-size="14.00" fill="#000000"> </text>
<polyline fill="none" stroke="#000000" points="163.7366,-75.7 271.4772,-75.7 "/>
<text text-anchor="start" x="171.7366" y="-59.1" font-family="Times,serif" font-size="14.00" fill="#000000">Public:</text>
<text text-anchor="start" x="171.7366" y="-42.3" font-family="Times,serif" font-size="14.00" fill="#000000"> &#160;&#160;&#160;funA()</text>
</g>
<!-- 2&#45;&gt;0 -->
<g id="edge1" class="edge">
<title>2&#45;&gt;0</title>
<path fill="none" stroke="#000000" d="M194.4297,-125.6939C187.7659,-138.9178 180.2598,-153.8133 172.7484,-168.7193"/>
<polygon fill="none" stroke="#000000" points="163.3089,-164.1186 159.1853,-195.6344 182.0624,-173.5689 163.3089,-164.1186"/>
</g>
<!-- 2&#45;&gt;1 -->
<g id="edge2" class="edge">
<title>2&#45;&gt;1</title>
<path fill="none" stroke="#000000" d="M240.7841,-125.6939C249.9698,-143.9224 260.7562,-165.3274 270.9506,-185.5575"/>
<polygon fill="none" stroke="#000000" points="261.6311,-190.3964 284.5082,-212.4619 280.3845,-180.9461 261.6311,-190.3964"/>
</g>
<!-- 3 -->
<g id="node4" class="node">
<title>3</title>
<polygon fill="#f2f2f2" stroke="#000000" points="289.4,-17.3 289.4,-142.1 429.8138,-142.1 429.8138,-17.3 289.4,-17.3"/>
<text text-anchor="middle" x="359.6069" y="-125.5" font-family="Times,serif" font-size="14.00" fill="#000000">ArrayFunctions</text>
<polyline fill="none" stroke="#000000" points="289.4,-117.3 429.8138,-117.3 "/>
<text text-anchor="start" x="297.4" y="-100.7" font-family="Times,serif" font-size="14.00" fill="#000000">Public:</text>
<text text-anchor="start" x="297.4" y="-83.9" font-family="Times,serif" font-size="14.00" fill="#000000"> &#160;&#160;myUintArray: uint[]</text>
<polyline fill="none" stroke="#000000" points="289.4,-75.7 429.8138,-75.7 "/>
<text text-anchor="start" x="297.4" y="-59.1" font-family="Times,serif" font-size="14.00" fill="#000000">Public:</text>
<text text-anchor="start" x="297.4" y="-42.3" font-family="Times,serif" font-size="14.00" fill="#000000"> &#160;&#160;&#160;add(_num: uint)</text>
<text text-anchor="start" x="297.4" y="-25.5" font-family="Times,serif" font-size="14.00" fill="#000000"> &#160;&#160;&#160;removeElement()</text>
</g>
<!-- 4 -->
<g id="node5" class="node">
<title>4</title>
<polygon fill="#f2f2f2" stroke="#000000" points="447.7682,-8.9 447.7682,-150.5 783.4456,-150.5 783.4456,-8.9 447.7682,-8.9"/>
<text text-anchor="middle" x="615.6069" y="-133.9" font-family="Times,serif" font-size="14.00" fill="#000000">FallbackReceive</text>
<polyline fill="none" stroke="#000000" points="447.7682,-125.7 783.4456,-125.7 "/>
<text text-anchor="middle" x="615.6069" y="-109.1" font-family="Times,serif" font-size="14.00" fill="#000000"> </text>
<polyline fill="none" stroke="#000000" points="447.7682,-100.9 783.4456,-100.9 "/>
<text text-anchor="start" x="455.7682" y="-84.3" font-family="Times,serif" font-size="14.00" fill="#000000">External:</text>
<text text-anchor="start" x="455.7682" y="-67.5" font-family="Times,serif" font-size="14.00" fill="#000000"> &#160;&#160;&#160;&lt;&lt;payable&gt;&gt; null()</text>
<text text-anchor="start" x="455.7682" y="-50.7" font-family="Times,serif" font-size="14.00" fill="#000000"> &#160;&#160;&#160;null()</text>
<text text-anchor="start" x="455.7682" y="-33.9" font-family="Times,serif" font-size="14.00" fill="#000000">Public:</text>
<text text-anchor="start" x="455.7682" y="-17.1" font-family="Times,serif" font-size="14.00" fill="#000000"> &#160;&#160;&#160;&lt;&lt;event&gt;&gt; SomeEvent(_addr: address, _amount: uint)</text>
</g>
<!-- 5 -->
<g id="node6" class="node">
<title>5</title>
<polygon fill="#f2f2f2" stroke="#000000" points="861.5774,-195.9 861.5774,-320.7 1013.6364,-320.7 1013.6364,-195.9 861.5774,-195.9"/>
<text text-anchor="middle" x="937.6069" y="-304.1" font-family="Times,serif" font-size="14.00" fill="#000000">TryBaseBase</text>
<polyline fill="none" stroke="#000000" points="861.5774,-295.9 1013.6364,-295.9 "/>
<text text-anchor="middle" x="937.6069" y="-279.3" font-family="Times,serif" font-size="14.00" fill="#000000"> </text>
<polyline fill="none" stroke="#000000" points="861.5774,-271.1 1013.6364,-271.1 "/>
<text text-anchor="start" x="869.5774" y="-254.5" font-family="Times,serif" font-size="14.00" fill="#000000">Public:</text>
<text text-anchor="start" x="869.5774" y="-237.7" font-family="Times,serif" font-size="14.00" fill="#000000"> &#160;&#160;&#160;funARequireFailure()</text>
<text text-anchor="start" x="869.5774" y="-220.9" font-family="Times,serif" font-size="14.00" fill="#000000"> &#160;&#160;&#160;funBRevertFailure()</text>
<text text-anchor="start" x="869.5774" y="-204.1" font-family="Times,serif" font-size="14.00" fill="#000000"> &#160;&#160;&#160;funCAssertFailure()</text>
</g>
<!-- 6 -->
<g id="node7" class="node">
<title>6</title>
<polygon fill="#f2f2f2" stroke="#000000" points="801.4768,-.5 801.4768,-158.9 1073.737,-158.9 1073.737,-.5 801.4768,-.5"/>
<text text-anchor="middle" x="937.6069" y="-142.3" font-family="Times,serif" font-size="14.00" fill="#000000">TryCatch</text>
<polyline fill="none" stroke="#000000" points="801.4768,-134.1 1073.737,-134.1 "/>
<text text-anchor="start" x="809.4768" y="-117.5" font-family="Times,serif" font-size="14.00" fill="#000000">Public:</text>
<text text-anchor="start" x="809.4768" y="-100.7" font-family="Times,serif" font-size="14.00" fill="#000000"> &#160;&#160;instA: TryBaseBase</text>
<polyline fill="none" stroke="#000000" points="801.4768,-92.5 1073.737,-92.5 "/>
<text text-anchor="start" x="809.4768" y="-75.9" font-family="Times,serif" font-size="14.00" fill="#000000">Public:</text>
<text text-anchor="start" x="809.4768" y="-59.1" font-family="Times,serif" font-size="14.00" fill="#000000"> &#160;&#160;&#160;&lt;&lt;event&gt;&gt; Error(_reason: string)</text>
<text text-anchor="start" x="809.4768" y="-42.3" font-family="Times,serif" font-size="14.00" fill="#000000"> &#160;&#160;&#160;&lt;&lt;event&gt;&gt; LowLevelError(_reason: bytes)</text>
<text text-anchor="start" x="809.4768" y="-25.5" font-family="Times,serif" font-size="14.00" fill="#000000"> &#160;&#160;&#160;constructor()</text>
<text text-anchor="start" x="809.4768" y="-8.7" font-family="Times,serif" font-size="14.00" fill="#000000"> &#160;&#160;&#160;testRequireTryCatch(): bool</text>
</g>
<!-- 6&#45;&gt;5 -->
<g id="edge3" class="edge">
<title>6&#45;&gt;5</title>
<path fill="none" stroke="#000000" d="M937.6069,-159.0767C937.6069,-167.9155 937.6069,-176.8857 937.6069,-185.635"/>
<polygon fill="#000000" stroke="#000000" points="934.107,-185.7834 937.6069,-195.7834 941.107,-185.7835 934.107,-185.7834"/>
</g>
</g>
</svg>
